HIERARCHY
ROOT Hips
{
 OFFSET 0.000000 0.000000 0.000000
 CHANNELS 6 Xposition Yposition Zposition Yrotation Xrotation Zrotation
 JOINT Chest
 {
  OFFSET 0.000000 9.585900 0.002600
  CHANNELS 3 Yrotation Xrotation Zrotation
  JOINT Chest2
  {
   OFFSET 0.000000 9.601200 -0.005300
   CHANNELS 3 Yrotation Xrotation Zrotation
   JOINT Chest3
   {
    OFFSET 0.000000 9.561800 0.000000
    CHANNELS 3 Yrotation Xrotation Zrotation
    JOINT Chest4
    {
     OFFSET 0.000000 9.552100 0.000000
     CHANNELS 3 Yrotation Xrotation Zrotation
     JOINT Neck
     {
      OFFSET 0.000000 14.453000 0.000000
      CHANNELS 3 Yrotation Xrotation Zrotation
      JOINT Head
      {
       OFFSET 0.000000 8.936500 -0.011300
       CHANNELS 3 Yrotation Xrotation Zrotation
       End Site
       {
        OFFSET 0.000000 17.073600 -0.006000
       }
      }
     }
     JOINT RightCollar
     {
      OFFSET -2.921100 9.558500 0.000000
      CHANNELS 3 Yrotation Xrotation Zrotation
      JOINT RightShoulder
      {
       OFFSET -13.519700 0.000000 0.000000
       CHANNELS 3 Yrotation Xrotation Zrotation
       JOINT RightElbow
       {
        OFFSET 0.000000 -29.696600 0.000000
        CHANNELS 3 Yrotation Xrotation Zrotation
        JOINT RightWrist
        {
         OFFSET 0.000000 -24.004700 0.000000
         CHANNELS 3 Yrotation Xrotation Zrotation
         End Site
         {
          OFFSET 0.000000 -17.728500 0.000000
         }
        }
       }
      }
     }
     JOINT LeftCollar
     {
      OFFSET 2.921100 9.558500 0.000000
      CHANNELS 3 Yrotation Xrotation Zrotation
      JOINT LeftShoulder
      {
       OFFSET 13.519700 0.000000 0.000000
       CHANNELS 3 Yrotation Xrotation Zrotation
       JOINT LeftElbow
       {
        OFFSET 0.000000 -29.696600 0.000000
        CHANNELS 3 Yrotation Xrotation Zrotation
        JOINT LeftWrist
        {
         OFFSET 0.000000 -24.004700 0.000000
         CHANNELS 3 Yrotation Xrotation Zrotation
         End Site
         {
          OFFSET 0.000000 -17.728500 0.000000
         }
        }
       }
      }
     }
    }
   }
  }
 }
 JOINT RightHip
 {
  OFFSET -7.771700 -0.012900 -0.001300
  CHANNELS 3 Yrotation Xrotation Zrotation
  JOINT RightKnee
  {
   OFFSET 0.000000 -40.869800 0.001200
   CHANNELS 3 Yrotation Xrotation Zrotation
   JOINT RightAnkle
   {
    OFFSET 0.000000 -39.717900 0.002100
    CHANNELS 3 Yrotation Xrotation Zrotation
    JOINT RightToe
    {
     OFFSET 0.000000 -4.965400 11.033500
     CHANNELS 3 Yrotation Xrotation Zrotation
     End Site
     {
      OFFSET 0.000000 -1.423100 5.872300
     }
    }
   }
  }
 }
 JOINT LeftHip
 {
  OFFSET 7.771700 -0.012900 -0.001300
  CHANNELS 3 Yrotation Xrotation Zrotation
  JOINT LeftKnee
  {
   OFFSET 0.000000 -40.869800 0.001200
   CHANNELS 3 Yrotation Xrotation Zrotation
   JOINT LeftAnkle
   {
    OFFSET 0.000000 -39.717900 0.002100
    CHANNELS 3 Yrotation Xrotation Zrotation
    JOINT LeftToe
    {
     OFFSET 0.000000 -4.965400 11.033500
     CHANNELS 3 Yrotation Xrotation Zrotation
     End Site
     {
      OFFSET 0.000000 -1.423100 5.872300
     }
    }
   }
  }
 }
}
MOTION
Frames: 12
Frame Time: 0.008333
0.000000 85.388000 0.000000 0.000000 -5.767877 0.000000 0.000000 11.653817 0.000000 0.000000 -5.885947 0.000000 0.000000 -0.000000 0.000000 0.000000 -0.000000 0.000000 0.000000 12.528835 0.000000 0.000000 0.711642 0.000000 0.000000 -0.000000 0.000000 0.000000 0.000000 -90.000000 0.000000 -2.309062 0.000000 0.000000 2.309062 0.000000 0.000000 -0.000000 0.000000 0.000000 -0.000000 90.000000 0.000000 -2.309062 0.000000 0.000000 2.309062 0.000000 0.000000 8.520406 0.000000 0.000000 1.905762 0.000000 -0.000000 -4.658285 0.000000 0.000000 -0.000000 0.000000 0.000000 8.520406 0.000000 0.000000 1.905762 0.000000 -0.000000 -4.658285 0.000000 0.000000 -0.000000 0.000000
-36.904319 43.828288 24.085059 176.305211 -35.119687 0.424174 -0.350782 22.911069 4.482280 -0.194933 3.419297 0.723584 -0.295927 5.509227 1.175437 -0.533616 19.348768 4.077449 -0.378001 13.998788 -5.880359 0.955106 -10.931090 -6.266533 10.670620 -0.266146 -3.010183 -14.411842 -4.837790 -6.218294 -25.084490 -63.082082 25.120193 -9.897966 -6.814564 -22.540421 -16.789999 -3.068410 -6.529633 16.849309 -5.475120 1.331405 139.809823 -72.156457 -153.497503 18.680833 19.434018 30.547771 -0.201907 -55.655664 7.901766 -168.904696 68.127652 -167.513944 -11.058810 -25.894689 7.244472 0.132330 -0.663957 0.067142 3.514730 -38.935103 -0.673441 177.058650 57.186974 177.212098 -1.480908 -43.317596 1.720888 0.013419 0.118659 0.011566
-36.907413 43.827465 24.085919 176.342100 -35.118148 0.404166 -0.372897 22.912000 4.472721 -0.197701 3.418788 0.726832 -0.296876 5.509966 1.170629 -0.548430 19.359670 4.050651 -0.367015 13.976317 -5.875810 0.966235 -10.935275 -6.259466 10.685001 -0.271574 -3.013243 -14.423739 -4.801315 -6.252669 -25.119847 -62.960278 25.136625 -9.923760 -6.815017 -22.564083 -16.735448 -3.082259 -6.471389 16.967430 -5.538293 1.448699 140.090022 -72.137849 -153.611803 18.868839 19.247103 31.229612 -0.230793 -55.654953 7.908655 -168.932370 68.130054 -167.553323 -11.069132 -25.894735 7.259480 0.124784 -0.664254 0.063239 3.491889 -38.946796 -0.673403 177.063270 57.183566 177.215031 -1.487957 -43.306761 1.727640 0.017549 0.113626 0.010767
-36.908646 43.826727 24.086502 176.365314 -35.119039 0.375564 -0.378358 22.915519 4.481686 -0.202040 3.416720 0.734365 -0.294523 5.514526 1.161077 -0.549639 19.358764 4.055431 -0.366467 13.963052 -5.896944 0.970185 -10.939779 -6.252963 10.686213 -0.262612 -3.042537 -14.430638 -4.762663 -6.298819 -25.133224 -62.836990 25.138017 -9.944700 -6.810693 -22.585228 -16.701484 -3.091009 -6.447496 17.091917 -5.599347 1.574549 140.209630 -72.106286 -153.597926 19.057407 19.073332 31.823189 -0.269660 -55.651664 7.943021 -168.918662 68.131146 -167.542132 -11.082545 -25.896180 7.264201 0.134765 -0.659845 0.066825 3.462511 -38.954481 -0.643170 177.066568 57.177732 177.214196 -1.504164 -43.301897 1.734919 0.018808 0.110371 0.013683
-36.911590 43.825581 24.087337 176.376130 -35.116333 0.358169 -0.376489 22.917429 4.480847 -0.198529 3.417568 0.734490 -0.293755 5.525674 1.146509 -0.547711 19.347207 4.079514 -0.362905 13.950228 -5.918763 0.982410 -10.958086 -6.270309 10.684353 -0.255586 -3.072030 -14.434076 -4.722053 -6.355251 -25.100197 -62.715272 25.103371 -9.960103 -6.805000 -22.601599 -16.688029 -3.095352 -6.433209 17.238065 -5.658983 1.709262 140.203604 -72.068019 -153.488883 19.246666 18.911393 32.328571 -0.289868 -55.654417 7.969137 -168.904265 68.132496 -167.530870 -11.101121 -25.898383 7.266976 0.145202 -0.652939 0.076227 3.447857 -38.963413 -0.610912 177.069977 57.172799 177.207429 -1.534098 -43.297602 1.754530 0.017014 0.107491 0.017885
-36.915460 43.824451 24.087903 176.378831 -35.113678 0.344651 -0.368326 22.919575 4.476551 -0.198710 3.419678 0.738702 -0.293641 5.524943 1.151035 -0.548210 19.365197 4.060388 -0.346034 13.917849 -5.914293 1.018870 -11.003390 -6.321061 10.680770 -0.271099 -3.081991 -14.439664 -4.680140 -6.421931 -25.013169 -62.601038 25.026570 -9.965312 -6.795284 -22.612807 -16.608765 -3.121712 -6.354381 17.329865 -5.675432 1.809845 140.081661 -72.023086 -153.302658 19.426324 18.756478 32.746843 -0.289846 -55.655820 7.991950 -168.864513 68.135439 -167.499775 -11.111126 -25.901991 7.287262 0.140991 -0.642162 0.077272 3.440077 -38.970839 -0.587075 177.089644 57.168642 177.219107 -1.542828 -43.293915 1.761764 0.018914 0.104628 0.022785
-36.920042 43.823597 24.087882 176.384125 -35.113106 0.327555 -0.362607 22.920645 4.476606 -0.197186 3.425029 0.732528 -0.294845 5.519807 1.170808 -0.552436 19.374114 4.043769 -0.327392 13.898969 -5.922756 1.038721 -11.036108 -6.342698 10.679422 -0.268805 -3.098914 -14.451905 -4.640676 -6.495460 -24.875559 -62.494135 24.907566 -9.953374 -6.779255 -22.615746 -16.541242 -3.136072 -6.298258 17.437933 -5.684219 1.918758 139.833679 -71.969628 -153.034691 19.581641 18.604520 33.081799 -0.300663 -55.657827 8.011199 -168.833209 68.133954 -167.472506 -11.104663 -25.897550 7.293457 0.137691 -0.646394 0.076502 3.429116 -38.976933 -0.568047 177.096219 57.163163 177.222698 -1.543139 -43.287886 1.752157 0.018187 0.099423 0.031744
-36.925674 43.823320 24.086930 176.394433 -35.116567 0.307757 -0.360683 22.925144 4.474542 -0.198870 3.425327 0.742927 -0.294720 5.524380 1.161976 -0.550299 19.373507 4.050898 -0.317181 13.881715 -5.938859 1.052279 -11.060998 -6.349265 10.677918 -0.259604 -3.122789 -14.468834 -4.602479 -6.570783 -24.695932 -62.391787 24.749076 -9.925114 -6.759066 -22.606480 -16.495824 -3.142169 -6.263965 17.565572 -5.692627 2.038220 139.455037 -71.905803 -152.676224 19.716663 18.458165 33.350789 -0.316815 -55.655350 8.027638 -168.814228 68.131230 -167.456610 -11.095800 -25.889719 7.294278 0.135686 -0.653772 0.082763 3.423342 -38.976986 -0.550851 177.107184 57.158716 177.232735 -1.551972 -43.285042 1.761937 0.019668 0.096181 0.035870
-36.931858 43.823020 24.085851 176.406762 -35.117977 0.284097 -0.358294 22.927724 4.474220 -0.199797 3.427080 0.744111 -0.293709 5.530647 1.145536 -0.543402 19.369464 4.076901 -0.309295 13.863908 -5.953265 1.061506 -11.077233 -6.346728 10.678655 -0.251910 -3.144800 -14.488438 -4.561393 -6.646026 -24.494348 -62.298482 24.566276 -9.887728 -6.736377 -22.590115 -16.477679 -3.144388 -6.244196 17.718751 -5.701260 2.172989 138.944888 -71.824307 -152.226363 19.842081 18.320872 33.585113 -0.346177 -55.653890 8.051040 -168.814356 68.130629 -167.459850 -11.092517 -25.882954 7.290590 0.137219 -0.661213 0.087206 3.411117 -38.979550 -0.534924 177.114602 57.153689 177.239714 -1.554403 -43.283786 1.767734 0.021234 0.093108 0.040563
-36.937887 43.822795 24.084620 176.415677 -35.117355 0.256228 -0.349469 22.929387 4.480822 -0.200942 3.427014 0.743881 -0.294577 5.529392 1.161492 -0.545661 19.387216 4.040814 -0.292933 13.829875 -5.936138 1.060946 -11.071885 -6.328793 10.682571 -0.262606 -3.137722 -14.508998 -4.518547 -6.720879 -24.292543 -62.216324 24.379125 -9.846855 -6.714706 -22.576524 -16.412634 -3.158615 -6.163271 17.825091 -5.677573 2.282410 138.405450 -71.721222 -151.799177 19.993677 18.200839 33.827601 -0.366861 -55.651876 8.074517 -168.794309 68.133079 -167.440054 -11.080735 -25.882296 7.296589 0.152130 -0.659311 0.081521 3.402137 -38.983951 -0.516429 177.112914 57.147347 177.244553 -1.560080 -43.283246 1.771818 0.023337 0.091042 0.040986
-36.945659 43.823722 24.081540 176.436464 -35.125931 0.228345 -0.354465 22.941895 4.479678 -0.198308 3.426799 0.743911 -0.293980 5.532276 1.162470 -0.542848 19.386169 4.053149 -0.289427 13.802840 -5.967670 1.071826 -11.087610 -6.315507 10.683201 -0.261817 -3.143350 -14.518964 -4.497131 -6.758181 -23.998428 -62.136517 24.078323 -9.810363 -6.700516 -22.569136 -16.351836 -3.168903 -6.120907 17.929463 -5.645778 2.395164 137.861460 -71.606657 -151.377377 20.161338 18.111611 34.039844 -0.366714 -55.637918 8.070119 -168.739546 68.128048 -167.380350 -11.053616 -25.890780 7.302844 0.146940 -0.655709 0.086602 3.393774 -38.977168 -0.509252 177.106496 57.142629 177.246155 -1.568501 -43.282549 1.778117 0.017910 0.092100 0.036084
-36.954235 43.824782 24.078052 176.453134 -35.133293 0.204710 -0.357868 22.954784 4.476332 -0.193761 3.435298 0.724988 -0.291191 5.537698 1.164300 -0.534410 19.372868 4.085075 -0.291358 13.790463 -5.976549 1.078017 -11.113232 -6.317629 10.684198 -0.261183 -3.148194 -14.526877 -4.475083 -6.795382 -23.738357 -62.058231 23.808941 -9.785604 -6.698114 -22.560709 -16.289099 -3.178839 -6.086118 18.024809 -5.606961 2.508926 136.890270 -71.492750 -150.567500 20.211060 17.983147 34.202799 -0.373951 -55.624765 8.073133 -168.756447 68.128298 -167.392155 -11.069661 -25.901041 7.318764 0.147640 -0.649608 0.082443 3.394117 -38.969092 -0.511046 177.107646 57.139584 177.255437 -1.560766 -43.285827 1.783987 0.017461 0.091949 0.036133
